<svg width="21" height="19" viewBox="0 0 21 19" fill="none" xmlns="http://www.w3.org/2000/svg">
<path fill-rule="evenodd" clip-rule="evenodd" d="M17.2244 16.0731H14.3807V11.7397C14.3807 10.7064 14.3612 9.37714 12.9019 9.37714C11.4212 9.37714 11.1939 10.5028 11.1939 11.665V16.0731H8.35071V7.16218H11.08V8.37975H11.1181C11.4981 7.67929 12.4264 6.94071 13.8108 6.94071C16.6924 6.94071 17.2244 8.78638 17.2244 11.1855V16.0731ZM5.14372 5.94428C4.23159 5.94428 3.49347 5.22477 3.49347 4.33824C3.49347 3.45249 4.23159 2.73297 5.14372 2.73297C6.05358 2.73297 6.7929 3.45249 6.7929 4.33824C6.7929 5.22477 6.05358 5.94428 5.14372 5.94428ZM3.71967 16.073H6.56557V7.16203H3.71967V16.073ZM18.6412 0.162109H2.29116C1.50986 0.162109 0.875 0.764799 0.875 1.50753V17.4868C0.875 18.2305 1.50986 18.8341 2.29116 18.8341H18.6412C19.4238 18.8341 20.0614 18.2305 20.0614 17.4868V1.50753C20.0614 0.764799 19.4238 0.162109 18.6412 0.162109Z" fill="#9251F7"/>
</svg>
